# xmcd
#
# Track frame offsets:
#	150
#	16028
#	31000
#	47840
#	69829
#	88070
#	100764
#	112222
#	126119
#	142119
#	157078
#
# Disc length: 2318 seconds
#
# Revision: 4
# Processed by: cddbd v1.5.1PL0 Copyright (c) Steve Scherf et al.
# Submitted via: MusicWizard 7.0.2
#
DISCID=8e090c0b
DTITLE=John Cougar Mellencamp - Big Daddy
DYEAR=1989
DGENRE=Countryrock
TTITLE0=Big Daddy Of Them All
TTITLE1=To Live
TTITLE2=Martha Say
TTITLE3=Theo And Weird Henry
TTITLE4=Jackie Brown
TTITLE5=Pop Singer
TTITLE6=Void In My Hear
TTITLE7=Mansions In Heaven
TTITLE8=Sometimes A Great Notion
TTITLE9=Country Gentleman
TTITLE10=J M's Question
EXTD=(p)1989 John Mellencamp - Phonogram\nupc 042283822016\nMercury 838220-2\n
EXTT0=
EXTT1=
EXTT2=
EXTT3=
EXTT4=
EXTT5=
EXTT6=
EXTT7=
EXTT8=
EXTT9=
EXTT10=
PLAYORDER=
